<svg xmlns="http://www.w3.org/2000/svg" viewBox="0 0 1440 320"><path fill="#007bff" fill-opacity="1" d="M0,192L30,160C60,128,120,64,180,85.3C240,107,300,213,360,218.7C420,224,480,128,540,101.3C600,75,660,117,720,128C780,139,840,117,900,101.3C960,85,1020,75,1080,64C1140,53,1200,43,1260,48C1320,53,1380,75,1410,85.3L1440,96L1440,0L1410,0C1380,0,1320,0,1260,0C1200,0,1140,0,1080,0C1020,0,960,0,900,0C840,0,780,0,720,0C660,0,600,0,540,0C480,0,420,0,360,0C300,0,240,0,180,0C120,0,60,0,30,0L0,0Z"></path></svg>