<svg xmlns="http://www.w3.org/2000/svg" viewBox="0 0 1440 320"><path fill="#95bcfc" fill-opacity="1" d="M0,128L26.7,106.7C53.3,85,107,43,160,42.7C213.3,43,267,85,320,122.7C373.3,160,427,192,480,213.3C533.3,235,587,245,640,224C693.3,203,747,149,800,154.7C853.3,160,907,224,960,208C1013.3,192,1067,96,1120,85.3C1173.3,75,1227,149,1280,176C1333.3,203,1387,181,1413,170.7L1440,160L1440,320L1413.3,320C1386.7,320,1333,320,1280,320C1226.7,320,1173,320,1120,320C1066.7,320,1013,320,960,320C906.7,320,853,320,800,320C746.7,320,693,320,640,320C586.7,320,533,320,480,320C426.7,320,373,320,320,320C266.7,320,213,320,160,320C106.7,320,53,320,27,320L0,320Z"></path></svg>