<svg xmlns="http://www.w3.org/2000/svg" viewBox="0 0 1440 320"><path fill="#007bff" fill-opacity="1" d="M0,192L20,197.3C40,203,80,213,120,224C160,235,200,245,240,224C280,203,320,149,360,122.7C400,96,440,96,480,101.3C520,107,560,117,600,106.7C640,96,680,64,720,80C760,96,800,160,840,192C880,224,920,224,960,186.7C1000,149,1040,75,1080,85.3C1120,96,1160,192,1200,213.3C1240,235,1280,181,1320,170.7C1360,160,1400,192,1420,208L1440,224L1440,320L1420,320C1400,320,1360,320,1320,320C1280,320,1240,320,1200,320C1160,320,1120,320,1080,320C1040,320,1000,320,960,320C920,320,880,320,840,320C800,320,760,320,720,320C680,320,640,320,600,320C560,320,520,320,480,320C440,320,400,320,360,320C320,320,280,320,240,320C200,320,160,320,120,320C80,320,40,320,20,320L0,320Z"></path></svg>